<?xml version="1.0" encoding="UTF-8" standalone="no"?>
<!-- Created with Inkscape (http://www.inkscape.org/) -->

<svg
   xmlns:dc="http://purl.org/dc/elements/1.1/"
   xmlns:cc="http://creativecommons.org/ns#"
   xmlns:rdf="http://www.w3.org/1999/02/22-rdf-syntax-ns#"
   xmlns:svg="http://www.w3.org/2000/svg"
   xmlns="http://www.w3.org/2000/svg"
   xmlns:sodipodi="http://sodipodi.sourceforge.net/DTD/sodipodi-0.dtd"
   xmlns:inkscape="http://www.inkscape.org/namespaces/inkscape"
   width="744.09448819"
   height="1052.3622047"
   id="svg2"
   version="1.1"
   inkscape:version="0.48.5 r10040"
   sodipodi:docname="New document 1">
  <defs
     id="defs4" />
  <sodipodi:namedview
     id="base"
     pagecolor="#ffffff"
     bordercolor="#666666"
     borderopacity="1.0"
     inkscape:pageopacity="0.0"
     inkscape:pageshadow="2"
     inkscape:zoom="1.4"
     inkscape:cx="285.27139"
     inkscape:cy="778.88701"
     inkscape:document-units="px"
     inkscape:current-layer="layer1"
     showgrid="false"
     inkscape:window-width="1158"
     inkscape:window-height="711"
     inkscape:window-x="0"
     inkscape:window-y="0"
     inkscape:window-maximized="0" />
  <metadata
     id="metadata7">
    <rdf:RDF>
      <cc:Work
         rdf:about="">
        <dc:format>image/svg+xml</dc:format>
        <dc:type
           rdf:resource="http://purl.org/dc/dcmitype/StillImage" />
        <dc:title></dc:title>
      </cc:Work>
    </rdf:RDF>
  </metadata>
  <g
     inkscape:label="Layer 1"
     inkscape:groupmode="layer"
     id="layer1">
    <path
       style="fill:#000000;stroke:#000000;stroke-width:1px;stroke-linecap:butt;stroke-linejoin:miter;stroke-opacity:1"
       d="m 75.013393,179.05804 222.218747,350.09375 224.90625,-350.09375 -447.124997,0 z m 90.624997,20.0625 24.09375,0 146.28125,230.625 -12.1875,19 -158.1875,-249.625 z m 51.25,0 24.125,0 120.78125,190.4375 -12.1875,18.96875 -132.71875,-209.40625 z m 51.03125,0 24.09375,0 95.40625,150.4375 -12.15625,18.9375 -107.34375,-169.375 z m 51.25,0 24.125,0 69.90625,110.21875 -12.15625,18.96875 -81.875,-129.1875 z m 51.03125,0 24.09375,0 44.53125,70.21875 -12.125,18.9375 -56.5,-89.15625 z m 51.5,0 24.125,0 18.90625,29.8125 -12.125,18.9375 -30.90625,-48.75 z m 51.28125,0 11,0 -5.75,9.03125 -5.25,-9.03125 z m -359.09375,0.0312 24.09375,0 171.875,270.96875 -12.21875,18.9375 -183.75,-289.90625 z"
       id="path3052"
       inkscape:connector-curvature="0"
       inkscape:export-filename="/Users/mitchell/ic_kfjc_notification.png"
       inkscape:export-xdpi="90"
       inkscape:export-ydpi="90" />
    <path
       style="fill:#000000;stroke:#000000;stroke-width:1px;stroke-linecap:butt;stroke-linejoin:miter;stroke-opacity:1"
       d="M 107.15625 647.75 L 329.375 997.84375 L 554.28125 647.75 L 107.15625 647.75 z M 473.78125 691.03125 L 432.34375 756 L 391.1875 691.0625 L 473.78125 691.03125 z M 288.90625 691.0625 L 339.8125 691.0625 L 406.75 796 L 380.96875 836.3125 L 288.90625 691.0625 z M 185.875 691.09375 L 237.6875 691.09375 L 355.34375 876.34375 L 329.1875 917.21875 L 185.875 691.09375 z "
       id="path3881"
       inkscape:export-filename="/Users/mitchell/devil_triangle_small.png"
       inkscape:export-xdpi="90"
       inkscape:export-ydpi="90" />
    <path
       inkscape:connector-curvature="0"
       id="path3901"
       d="m 134.59505,690.70711 51.78572,0 157.94643,248.66071 -25.98215,41.25 z"
       style="fill:#204a87;fill-opacity:1;stroke:#000000;stroke-width:1px;stroke-linecap:butt;stroke-linejoin:miter;stroke-opacity:1;opacity:0"
       sodipodi:nodetypes="ccccc"
       inkscape:export-filename="/Users/mitchell/devil_triangle_small.png"
       inkscape:export-xdpi="90"
       inkscape:export-ydpi="90" />
  </g>
</svg>
